<svg width="519" height="87" viewBox="0 0 519 87" fill="none" xmlns="http://www.w3.org/2000/svg">
<path d="M27.5 76.125H22V38.0625C22 35.0566 19.537 32.625 16.5 32.625H5.5C2.46297 32.625 0 35.0566 0 38.0625C0 41.0684 2.46297 43.3471 5.5 43.3471H11V75.9721H5.5C2.46297 75.9721 0 78.4037 0 81.4096C0 84.4155 2.46297 86.8471 5.5 86.8471H27.5C30.537 86.8471 33 84.4155 33 81.4096C33 78.4037 30.5422 76.125 27.5 76.125ZM16.5 21.75C21.0564 21.75 24.75 18.0984 24.75 13.5938C24.75 9.08913 21.0547 5.43921 16.5 5.43921C11.9453 5.43921 8.25 9.09083 8.25 13.5955C8.25 18.1001 11.9436 21.75 16.5 21.75Z" fill="black"/>
<g clip-path="url(#clip0_112982_519)">
<path d="M137.857 25.5393L162.306 29.1417C164.331 29.4305 166.032 30.8579 166.679 32.812C167.325 34.7831 166.798 36.9241 165.334 38.3854L147.606 55.7514L151.791 80.662C152.132 82.701 151.298 84.7741 149.597 85.9805C147.912 87.187 145.683 87.3399 143.863 86.3713L122.017 74.7317L100.188 86.3713C98.3508 87.3399 96.122 87.187 94.4376 85.9805C92.7532 84.7741 91.9025 82.701 92.2598 80.662L96.4453 55.7514L78.7134 38.3854C77.2485 36.9241 76.7279 34.7831 77.371 32.812C78.0124 30.8579 79.7087 29.4305 81.7487 29.1417L106.177 25.5393L117.134 3.05355C118.036 1.18169 119.941 -0.0065918 122.017 -0.0065918C124.11 -0.0065918 126.015 1.18169 126.917 3.05355L137.857 25.5393Z" fill="black"/>
</g>
<g clip-path="url(#clip1_112982_519)">
<path d="M246.1 8.15625C246.1 12.6609 242.472 16.3125 238 16.3125C233.528 16.3125 229.9 12.6609 229.9 8.15625C229.9 3.65162 233.528 0 238 0C242.472 0 246.1 3.65162 246.1 8.15625ZM236.65 59.8125V81.5625C236.65 84.5701 234.237 87 231.25 87C228.263 87 225.85 84.5701 225.85 81.5625V43.6529L221.029 51.7412C219.493 54.307 216.175 55.1396 213.619 53.5934C211.062 52.0471 210.235 48.7166 211.772 46.1338L221.606 29.6684C224.534 24.7576 229.799 21.75 235.486 21.75H240.514C246.201 21.75 251.466 24.7576 254.402 29.6684L264.224 46.1338C265.759 48.7166 264.932 52.0471 262.384 53.5934C259.819 55.1396 256.512 54.307 254.976 51.7412L250.15 43.6529V81.5625C250.15 84.5701 247.737 87 244.75 87C241.763 87 239.35 84.5701 239.35 81.5625V59.8125H236.65Z" fill="black"/>
</g>
<path d="M315.875 67.9688C315.875 69.4641 317.092 70.6875 318.594 70.6875H386.562C389.57 70.6875 392 73.1174 392 76.125C392 79.1326 389.57 81.5625 386.562 81.5625H318.594C311.087 81.5625 305 75.4793 305 67.9688V10.875C305 7.87248 307.435 5.4375 310.438 5.4375C313.44 5.4375 315.875 7.87248 315.875 10.875V67.9688ZM363.215 47.3402C361.091 49.4643 357.659 49.4643 355.535 47.3402L345.781 37.6037L330.59 52.7777C328.466 54.9018 325.034 54.9018 322.91 52.7777C320.782 50.6537 320.782 47.2213 322.91 45.0973L341.941 26.066C344.065 23.942 347.497 23.942 349.621 26.066L359.375 35.8025L377.285 17.9098C379.409 15.7823 382.841 15.7823 384.965 17.9098C387.089 20.0338 387.089 23.4662 384.965 25.5902L363.215 47.3402Z" fill="black"/>
<g clip-path="url(#clip2_112982_519)">
<path d="M464.735 0.921824C466.093 -0.318544 468.2 -0.301553 469.558 0.938816C474.363 5.33958 478.873 10.0802 483.086 15.2115C485.001 12.7648 487.178 10.0972 489.528 7.92226C490.904 6.6649 493.028 6.6649 494.403 7.93925C500.427 13.5464 505.529 20.9546 509.115 27.989C512.65 34.9215 515 42.0069 515 47.0024C515 68.6833 497.624 87 476 87C454.132 87 437 68.6663 437 46.9854C437 40.4607 440.099 32.4918 444.904 24.6078C449.762 16.6048 456.622 8.26209 464.735 0.921824ZM476.296 70.6883C480.701 70.6883 484.601 69.4989 488.275 67.1201C495.604 62.1247 497.572 52.1338 493.167 44.2838C492.383 42.7545 490.381 42.6526 489.25 43.9439L484.862 48.9224C483.713 50.2137 481.641 50.1797 480.562 48.8374C477.689 45.2692 472.553 38.8975 469.628 35.2783C468.531 33.919 466.442 33.902 465.327 35.2613C459.442 42.4827 456.483 47.0364 456.483 52.1507C456.5 63.7898 465.31 70.6883 476.296 70.6883Z" fill="black"/>
</g>
<defs>
<clipPath id="clip0_112982_519">
<rect width="98" height="87" fill="white" transform="translate(73)"/>
</clipPath>
<clipPath id="clip1_112982_519">
<rect width="54" height="87" fill="white" transform="translate(211)"/>
</clipPath>
<clipPath id="clip2_112982_519">
<rect width="87" height="87" fill="white" transform="translate(432)"/>
</clipPath>
</defs>
</svg>
